<?xml version="1.0" encoding="utf-8"?>
<!-- Generator: Adobe Illustrator 18.1.1, SVG Export Plug-In . SVG Version: 6.00 Build 0)  -->
<svg version="1.1" id="Layer_1" xmlns="http://www.w3.org/2000/svg" xmlns:xlink="http://www.w3.org/1999/xlink" x="0px" y="0px"
	 viewBox="-1081 1090.8 28 20.4" enable-background="new -1081 1090.8 28 20.4" xml:space="preserve">
<g>
	<path fill="#8D36B8" d="M-1079,1095h24c1.1,0,2-0.9,2-2s-0.9-2-2-2h-24c-1.1,0-2,0.9-2,2S-1080.1,1095-1079,1095z M-1055,1099h-24
		c-1.1,0-2,0.9-2,2s0.9,2,2,2h24c1.1,0,2-0.9,2-2S-1053.9,1099-1055,1099z M-1055,1107h-24c-1.1,0-2,0.9-2,2s0.9,2,2,2h24
		c1.1,0,2-0.9,2-2S-1053.9,1107-1055,1107z"/>
</g>
</svg>
